<?xml version="1.0" encoding="utf-8"?>
<!-- Generator: Adobe Illustrator 23.0.3, SVG Export Plug-In . SVG Version: 6.00 Build 0)  -->
<svg version="1.1" id="Layer_1" xmlns="http://www.w3.org/2000/svg" xmlns:xlink="http://www.w3.org/1999/xlink" x="0px" y="0px"
	 viewBox="0 0 256 256" style="enable-background:new 0 0 256 256;" xml:space="preserve">
<style type="text/css">
	.st0{fill:#29ABE2;}
	.st1{fill:#29ABE2;stroke:#29ABE2;stroke-miterlimit:10;}
	.st2{fill:none;stroke:#FFFFFF;stroke-width:2;stroke-miterlimit:10;}
</style>
<g>
	<g>
		<path class="st0" d="M109.4,120.7c-0.3-2.7-0.8-5-1.5-6.9C104.4,104,94.9,102,94.9,102c-0.1,0-0.1-0.2,0-0.2
			c2.1-0.8,17.7-9.9,17.7-30.7c0-2.5-0.4-9.6-3.5-16.3c-6.9-16-24.5-16.9-29.3-17.2l-7.9-0.5c-0.1,0-0.2,0-0.2,0H24.3
			c-1.9,0-3.5,1.6-3.5,3.5v114c0,3.6,2.9,6.5,6.5,6.5s6.5-2.9,6.5-6.5v-45c0-1.9,1.6-3.5,3.5-3.5h28.7c8.3,0,16.3,0,23.4,5
			c1.4,0.9,3.7,2.7,5.5,6.6c2.5,5.9,2.7,14.5,3,20.9c0.1,3.2,0.3,5.8,0.6,8.1c0-9,3.8-17,9.9-22.7
			C109.2,123,109.6,121.9,109.4,120.7z M88.5,92.3c-6.2,3-14.2,3-21.3,3H37c-1.9,0-3.5-1.6-3.5-3.5V51.1c0-1.9,1.6-3.5,3.5-3.5h8.5
			c6.2-0.2,12.6-0.2,19-0.2c16,0,23.6,1.8,29.1,7.3c6,6,6.4,13,6.4,16.1C100,83.9,93.6,89.8,88.5,92.3z"/>
	</g>
	<g>
		<circle class="st0" cx="129.7" cy="146.6" r="19"/>
	</g>
	<g>
		<path class="st0" d="M224.6,102.7c-7.8-6-17-7.8-26.3-9.4l-23.1-4.4c-6.9-1.1-15.3-2.7-20.6-7.6c-4.8-4.4-5.3-10.6-5.3-12.8
			c0-4.8,2.3-13.7,12.8-19.3c9-4.8,19.4-5.1,22.2-5.1c18.6,0,25.4,8,29.2,14.4c1.3,2.2,2.1,4.2,3,7.9c0.7,2.8,3.2,4.7,6,4.7
			c3.9,0,6.8-3.6,6.1-7.5c-0.6-3.1-1.6-6-3.4-9.4c-3.2-6-7.4-9.4-9.6-11c-10.3-7.8-18.5-9.8-30.9-9.9c-13.3,0-25.2,2.3-35.5,10.6
			c-11,9-12.4,19.9-12.4,25c0,6.6,2,11.7,3,13.8c1.1,2.1,3.7,6.9,9,10.5c6.6,4.4,14.4,6.7,31.4,9.4l15.1,2.7
			c12.4,2.5,27.3,5.3,27.3,21.3c0,5.5-2.1,10.5-5.7,14.5c-8.2,9.4-19.2,10.5-22.7,10.8c-3.2,0.4-6.4,0.5-9.4,0.5
			c-11.3,0-18.7-2.5-23.8-6.1c0,0.1,0,0.2,0,0.2c0,4.2-0.8,8.3-2.4,11.9c5.7,2.9,13.4,5.1,26,5.1c20.8,0,31.6-5.9,38.5-11.5
			c11.2-9,12.1-20.9,12.1-25.9C235.2,112.7,228.8,106.1,224.6,102.7z"/>
	</g>
</g>
<g>
	<path class="st1" d="M13.2,204.7v11.8h-2v-25.2h9c5,0,7.6,2.7,7.6,6.6c0,3.2-1.9,5.3-4.7,5.9c2.6,0.6,4.3,2.3,4.3,6.6v1
		c0,1.8-0.1,4.1,0.3,5.1h-2c-0.5-1.1-0.4-3.1-0.4-5.3v-0.6c0-4.1-1.2-5.9-6-5.9H13.2z M13.2,202.9h6.1c4.4,0,6.5-1.7,6.5-5
		c0-3.1-2-4.9-5.9-4.9h-6.6V202.9z"/>
	<path class="st1" d="M32,216.4v-4.6h1.8v4.6H32z"/>
	<path class="st1" d="M47.3,209.7c0.8,3.3,3,5.3,7.1,5.3c4.6,0,6.4-2.3,6.4-5c0-2.8-1.3-4.6-6.8-6c-5.3-1.3-7.6-3.1-7.6-6.7
		c0-3.3,2.4-6.4,7.8-6.4c5.5,0,7.9,3.4,8.2,6.4h-2c-0.6-2.7-2.3-4.6-6.3-4.6c-3.6,0-5.6,1.7-5.6,4.5c0,2.8,1.7,3.9,6.3,5
		c7.1,1.8,8.1,4.6,8.1,7.6c0,3.7-2.7,6.9-8.5,6.9c-6.3,0-8.6-3.7-9.1-7.1H47.3z"/>
	<path class="st1" d="M79.2,213c0,1.6,0.1,2.8,0.3,3.4h-1.7c-0.1-0.4-0.3-1.2-0.3-2.8c-0.6,1.3-2.2,3.2-5.9,3.2c-4.2,0-6-2.7-6-5.4
		c0-4,3.1-5.8,8.5-5.8c1.5,0,2.7,0,3.4,0v-1.8c0-1.8-0.5-4.2-4.6-4.2c-3.6,0-4.2,1.9-4.6,3.4h-1.8c0.2-2,1.4-5,6.4-5
		c4.1,0,6.4,1.7,6.4,5.7V213z M77.4,207.2c-0.7,0-2.3,0-3.5,0c-4,0-6.5,1-6.5,4.1c0,2.3,1.6,3.8,4.1,3.8c5.1,0,5.9-3.4,5.9-7.3
		V207.2z"/>
	<path class="st1" d="M81.3,198.4h3.3v-5.6h1.8v5.6h4.3v1.7h-4.3v11.7c0,2,0.4,3.2,2.2,3.2c0.5,0,1.3,0,1.9-0.2v1.6
		c-0.6,0.3-1.5,0.3-2.2,0.3c-2.3,0-3.6-1.2-3.6-4v-12.5h-3.3V198.4z"/>
	<path class="st1" d="M95.2,189.9v11.6c1-1.9,2.8-3.5,5.9-3.5c2.6,0,6.1,1.3,6.1,7v11.4h-1.8v-11.1c0-3.6-1.6-5.6-4.6-5.6
		c-3.6,0-5.6,2.2-5.6,6.6v10h-1.8v-26.5H95.2z"/>
	<path class="st1" d="M112.3,189.9h1.8v3.5h-1.8V189.9z M112.3,198.4h1.8v18h-1.8V198.4z"/>
	<path class="st1" d="M119,198.4c3.6,10.3,5.2,14.5,5.8,16.5h0c0.7-2.2,2.2-6.4,5.7-16.5h1.9l-6.8,19c-1.9,5.3-3.2,6.5-6.4,6.5
		c-0.6,0-1.1,0-1.7-0.1v-1.8c0.5,0.1,1,0.1,1.6,0.1c2.6,0,3.4-1.3,4.8-5l-6.9-18.8H119z"/>
	<path class="st1" d="M146.9,213c0,1.6,0.1,2.8,0.3,3.4h-1.7c-0.1-0.4-0.3-1.2-0.3-2.8c-0.6,1.3-2.2,3.2-5.9,3.2c-4.2,0-6-2.7-6-5.4
		c0-4,3.1-5.8,8.5-5.8c1.5,0,2.7,0,3.4,0v-1.8c0-1.8-0.5-4.2-4.6-4.2c-3.6,0-4.2,1.9-4.6,3.4h-1.8c0.2-2,1.4-5,6.4-5
		c4.1,0,6.4,1.7,6.4,5.7V213z M145.1,207.2c-0.7,0-2.3,0-3.5,0c-4,0-6.5,1-6.5,4.1c0,2.3,1.6,3.8,4.1,3.8c5.1,0,5.9-3.4,5.9-7.3
		V207.2z"/>
	<path class="st1" d="M151.9,203c0-1.6,0-3.1,0-4.5h1.8c0.1,0.6,0.1,2.9,0.1,3.4c0.8-1.8,2.3-3.9,6-3.9c3.2,0,6,1.8,6,6.8v11.7H164
		v-11.4c0-3.2-1.3-5.3-4.5-5.3c-4.3,0-5.8,3.6-5.8,7.5v9.2h-1.8V203z"/>
	<path class="st1" d="M182.9,213c0,1.6,0.1,2.8,0.3,3.4h-1.7c-0.1-0.4-0.3-1.2-0.3-2.8c-0.6,1.3-2.2,3.2-5.9,3.2c-4.2,0-6-2.7-6-5.4
		c0-4,3.1-5.8,8.5-5.8c1.5,0,2.7,0,3.4,0v-1.8c0-1.8-0.5-4.2-4.6-4.2c-3.6,0-4.2,1.9-4.6,3.4h-1.8c0.2-2,1.4-5,6.4-5
		c4.1,0,6.4,1.7,6.4,5.7V213z M181.1,207.2c-0.7,0-2.3,0-3.5,0c-4,0-6.5,1-6.5,4.1c0,2.3,1.6,3.8,4.1,3.8c5.1,0,5.9-3.4,5.9-7.3
		V207.2z"/>
	<path class="st1" d="M185.1,198.4h3.3v-5.6h1.8v5.6h4.3v1.7h-4.3v11.7c0,2,0.4,3.2,2.2,3.2c0.5,0,1.3,0,1.9-0.2v1.6
		c-0.6,0.3-1.5,0.3-2.2,0.3c-2.3,0-3.6-1.2-3.6-4v-12.5h-3.3V198.4z"/>
	<path class="st1" d="M199,189.9v11.6c1-1.9,2.8-3.5,5.9-3.5c2.6,0,6.1,1.3,6.1,7v11.4h-1.8v-11.1c0-3.6-1.6-5.6-4.6-5.6
		c-3.6,0-5.6,2.2-5.6,6.6v10h-1.8v-26.5H199z"/>
	<path class="st1" d="M228.1,213c0,1.6,0.1,2.8,0.3,3.4h-1.7c-0.1-0.4-0.3-1.2-0.3-2.8c-0.6,1.3-2.2,3.2-5.9,3.2c-4.2,0-6-2.7-6-5.4
		c0-4,3.1-5.8,8.5-5.8c1.5,0,2.7,0,3.4,0v-1.8c0-1.8-0.5-4.2-4.6-4.2c-3.6,0-4.2,1.9-4.6,3.4h-1.8c0.2-2,1.4-5,6.4-5
		c4.1,0,6.4,1.7,6.4,5.7V213z M226.3,207.2c-0.7,0-2.3,0-3.5,0c-4,0-6.5,1-6.5,4.1c0,2.3,1.6,3.8,4.1,3.8c5.1,0,5.9-3.4,5.9-7.3
		V207.2z"/>
	<path class="st1" d="M233.2,203c0-1.6,0-3.1,0-4.5h1.8c0.1,0.6,0.1,2.9,0.1,3.4c0.8-1.8,2.3-3.9,6-3.9c3.2,0,6,1.8,6,6.8v11.7h-1.8
		v-11.4c0-3.2-1.3-5.3-4.5-5.3c-4.3,0-5.8,3.6-5.8,7.5v9.2h-1.8V203z"/>
</g>
<line class="st2" x1="8.5" y1="183" x2="247.5" y2="183"/>
<line class="st2" x1="127.5" y1="223.5" x2="248" y2="223.5"/>
<line class="st2" x1="9" y1="223.5" x2="112.6" y2="223.5"/>
</svg>
